<?xml version="1.0" encoding="utf-8" ?>
<svg xmlns="http://www.w3.org/2000/svg" width="32" height="32" viewBox="200 150 624 724">
    <path fill="#1C1674" d="M282.816 503.131C287.34 502.805 288.859 502.716 293.006 504.801C299.429 508.03 305.604 512.206 311.831 515.846L348.844 537.193L465.219 605.441C478.031 612.962 492.201 622.453 505.662 628.53C509.039 630.139 516.214 629.81 519.56 628.193C534.486 620.985 549.303 611.116 563.609 602.805L671.92 539.377C683.731 532.361 695.723 524.958 708.024 518.567C717.857 513.459 732.465 499.761 743.992 504.016C750.919 506.572 753.691 512.804 753.782 519.779C753.894 528.35 753.846 537.025 753.851 545.643L753.86 595.76L753.826 639.542C753.82 646.484 754.112 657.366 753.608 664.126C753.168 669.707 751.824 675.18 749.629 680.329C747.212 686.075 743.864 691.373 739.334 695.687C733.719 701.035 697.989 721.982 690.539 724.966C690.449 720.095 690.513 715.053 690.508 710.167L690.563 656.402C690.568 647.515 690.875 638.512 690.049 629.685C689.278 621.451 679.607 613.9 671.555 616.239C662.468 619.05 654.189 625.056 646.003 629.908C609.769 651.382 573.871 673.623 537.452 694.753C526.937 700.854 503.674 701.613 492.446 697.07C479.967 692.021 465.461 682.241 453.594 675.132L380.47 631.108C372.152 626.039 360.129 617.625 350.293 616.178C344.397 615.311 335.034 622.021 334.338 628.472C333.229 638.762 333.699 649.757 333.724 660.252C333.717 681.967 333.822 703.682 334.039 725.395L307.988 710.519C291.137 700.884 279.904 696.165 273.375 676.513C271.981 672.308 271.139 667.94 270.87 663.519C270.35 655.886 270.577 645.749 270.567 638.006L270.535 596.866L270.554 547.071C270.564 537.884 270.532 528.715 270.71 519.529C270.888 510.354 273.919 506.01 282.816 503.131Z"/>
    <path fill="#1C1674" d="M512.13 199.021C516.337 202.224 524.01 210.963 528.093 215.189L559.746 247.872C567.206 255.686 574.731 263.436 582.321 271.123C586.975 275.848 592.703 281.359 596.931 286.313C597.191 301.406 597.216 318.432 597.21 333.617C580.424 325.615 563.539 312.956 545.58 304.763C544.524 391.638 546.555 479.541 545.517 566.383C534.786 572.724 523.527 579.667 512.626 585.566C508.724 585.371 483.555 569.354 478.543 566.184C477.705 538.668 478.406 507.012 478.398 479.068L478.511 304.961C463.369 312.598 442.604 325.313 427.514 334.082C427.068 322.639 427.681 310.886 427.508 299.416C427.441 294.96 427.485 290.102 428.152 285.718C434.435 279.792 442.417 270.922 448.656 264.488L492.413 219.418C497.406 214.295 507.166 203.102 512.13 199.021Z"/>
    <path fill="#1C1674" d="M375.303 672.653C383.66 676.842 397.916 686.131 406.561 691.361L460.756 723.991C482.668 737.424 500.51 752.022 528.219 743.758C538.308 740.749 548.356 733.477 557.454 727.993L618.212 690.927C624.733 686.931 642.57 675.43 648.682 672.785L649.372 672.492C649.691 682.99 649.275 695.452 649.241 706.123L649.398 748.566C647.952 750.715 623.462 764.003 619.261 766.451C600.985 777.27 582.805 788.25 564.721 799.388C548.199 809.544 535.941 820.169 515.834 821.335C494.14 822.593 482.227 813.104 464.926 802.707L419.483 775.395L390.895 758.603C386.539 756.051 378.799 751.912 375.284 748.83C374.981 744.997 374.931 740.831 375.053 736.982C375.724 715.736 374.416 693.818 375.303 672.653Z"/>
    <path fill="#09A7E2" d="M640.144 274.842C644.049 276.577 648.017 279.354 651.755 281.606C658.062 285.396 664.398 289.139 670.761 292.834L710.929 315.826C724.716 323.821 738.103 329.854 746.459 344.019C749.679 349.368 751.831 355.29 752.798 361.457C753.903 368.546 754.253 438.072 753.1 442.136C750.547 451.132 738.352 455.751 730.735 459.933C725.73 462.832 695.293 480.994 691.34 481.739C690.023 479.218 690.632 469.63 690.657 466.345C690.822 444.479 690.96 419.706 690.649 398.159C690.339 376.68 655.198 371.312 640.52 357.847L640.406 299.858C640.373 291.678 639.901 282.855 640.144 274.842Z"/>
    <path fill="#09A7E2" d="M383.051 275.452L383.586 275.613C384.313 277.312 383.982 351.156 383.998 358.612C375.713 363.138 367.456 367.714 359.227 372.34C330.8 388.069 333.467 385.739 333.517 417.828L333.562 461.47C333.583 468.249 334.016 476 333.678 482.6C320.736 475.445 307.274 467.377 294.402 459.945C269.036 444.577 269.676 448.995 270.936 416.643C271.638 398.626 268.807 375.885 272.387 358.087C277.917 330.603 301.273 323.406 322.751 310.492C342.252 298.766 363.258 287.562 383.051 275.452Z"/>
    <path fill="#09A7E2" d="M587.033 374.892C594.727 377.65 610.927 388.395 618.71 392.501C625.804 396.391 632.802 400.608 639.737 404.718C651.311 411.577 649.023 422.968 649.035 434.608L649.047 464.226L649.104 489.606C649.118 493.903 649.384 501.726 648.62 505.622C646.35 508.897 631.176 516.444 626.234 519.577C613.796 525.64 599.725 535.291 587 541.914C586.469 536.273 586.957 522.504 586.996 516.168L587.377 459.433C587.422 441.835 587.347 424.236 587.15 406.638C587.038 398.564 586.312 382.252 587.033 374.892Z"/>
    <path fill="#09A7E2" d="M436.894 374.574C437.599 375.265 437.12 406.573 437.107 410.905L437.096 487.534C437.118 505.706 436.865 523.913 437.75 542.05C433.66 540.19 427.275 536.236 423.227 533.895C415.623 529.486 407.985 525.136 400.314 520.845C393.11 516.692 381.904 510.72 375.462 506.072C375.767 477.905 375.265 449.596 375.58 421.414C375.757 405.59 388.259 402.858 400.062 395.894C408.441 390.858 416.891 385.944 425.411 381.153C429.31 378.91 432.836 376.555 436.894 374.574Z"/>
</svg>
